<?xml version="1.0" encoding="UTF-8" standalone="no"?>
<!-- Created with Inkscape (http://www.inkscape.org/) -->

<svg
   width="512"
   height="512"
   viewBox="0 0 135.46666 135.46667"
   version="1.1"
   id="svg443"
   xml:space="preserve"
   inkscape:version="1.3.2 (091e20ef0f, 2023-11-25)"
   sodipodi:docname="favicon.svg"
   inkscape:export-filename="alee-logo-2023-new-new2.png"
   inkscape:export-xdpi="96"
   inkscape:export-ydpi="96"
   xmlns:inkscape="http://www.inkscape.org/namespaces/inkscape"
   xmlns:sodipodi="http://sodipodi.sourceforge.net/DTD/sodipodi-0.dtd"
   xmlns:xlink="http://www.w3.org/1999/xlink"
   xmlns="http://www.w3.org/2000/svg"
   xmlns:svg="http://www.w3.org/2000/svg"><sodipodi:namedview
     id="namedview445"
     pagecolor="#ffffff"
     bordercolor="#666666"
     borderopacity="1.0"
     inkscape:showpageshadow="false"
     inkscape:pageopacity="0.0"
     inkscape:pagecheckerboard="0"
     inkscape:deskcolor="#d1d1d1"
     inkscape:document-units="px"
     showgrid="true"
     showguides="true"
     inkscape:zoom="0.70710678"
     inkscape:cx="158.39192"
     inkscape:cy="433.45646"
     inkscape:window-width="1920"
     inkscape:window-height="1011"
     inkscape:window-x="0"
     inkscape:window-y="0"
     inkscape:window-maximized="1"
     inkscape:current-layer="g4680"
     showborder="false"
     borderlayer="false"><inkscape:grid
       type="xygrid"
       id="grid4093"
       originx="0"
       originy="0"
       spacingy="1"
       spacingx="1"
       units="px"
       visible="true" /></sodipodi:namedview><defs
     id="defs440"><linearGradient
       inkscape:collect="always"
       id="linearGradient3234"><stop
         style="stop-color:#0090b1;stop-opacity:0.5;"
         offset="0"
         id="stop3230" /><stop
         style="stop-color:#007b97;stop-opacity:0.5;"
         offset="1"
         id="stop3232" /></linearGradient><linearGradient
       inkscape:collect="always"
       id="linearGradient3226"><stop
         style="stop-color:#00ab50;stop-opacity:0.5;"
         offset="0"
         id="stop3222" /><stop
         style="stop-color:#007a39;stop-opacity:0.5;"
         offset="1"
         id="stop3224" /></linearGradient><clipPath
       clipPathUnits="userSpaceOnUse"
       id="clipPath1833"><circle
         style="fill:#008000;fill-opacity:1;stroke:none;stroke-width:1.4;stroke-dasharray:none;stroke-opacity:1;stop-color:#000000"
         id="circle1835"
         cx="85.576744"
         cy="193.35884"
         r="56.692291" /></clipPath><filter
       inkscape:collect="always"
       style="color-interpolation-filters:sRGB"
       id="filter1256"
       x="-0.064373585"
       y="-0.064373585"
       width="1.1287472"
       height="1.1287472"><feGaussianBlur
         inkscape:collect="always"
         stdDeviation="1.9524898"
         id="feGaussianBlur1258" /></filter><clipPath
       clipPathUnits="userSpaceOnUse"
       id="clipPath1266"><circle
         style="fill:none;fill-opacity:1;stroke:#000000;stroke-width:6.93738;stroke-dasharray:none;stroke-opacity:1;filter:url(#filter1256);stop-color:#000000"
         id="circle1268"
         cx="72.220245"
         cy="70.603271"
         r="63.3386" /></clipPath><clipPath
       clipPathUnits="userSpaceOnUse"
       id="clipPath43084"><rect
         style="fill:#008d41;fill-opacity:0.498567;stroke:none;stroke-width:0.615045;stroke-dasharray:none;stroke-opacity:1;stop-color:#000000"
         id="rect43086"
         width="134.85162"
         height="134.85162"
         x="0.30752301"
         y="0.30752301" /></clipPath><clipPath
       clipPathUnits="userSpaceOnUse"
       id="clipPath1833-5"><circle
         style="fill:#008000;fill-opacity:1;stroke:none;stroke-width:1.4;stroke-dasharray:none;stroke-opacity:1;stop-color:#000000"
         id="circle1835-3"
         cx="85.576744"
         cy="193.35884"
         r="56.692291" /></clipPath><clipPath
       clipPathUnits="userSpaceOnUse"
       id="clipPath1266-7"><circle
         style="fill:none;fill-opacity:1;stroke:#000000;stroke-width:6.93738;stroke-dasharray:none;stroke-opacity:1;filter:url(#filter1256-9);stop-color:#000000"
         id="circle1268-0"
         cx="72.220245"
         cy="70.603271"
         r="63.3386" /></clipPath><filter
       inkscape:collect="always"
       style="color-interpolation-filters:sRGB"
       id="filter1256-9"
       x="-0.064373585"
       y="-0.064373585"
       width="1.1287472"
       height="1.1287472"><feGaussianBlur
         inkscape:collect="always"
         stdDeviation="1.9524898"
         id="feGaussianBlur1258-3" /></filter><linearGradient
       inkscape:collect="always"
       xlink:href="#linearGradient21870"
       id="linearGradient21872"
       x1="674.47766"
       y1="1754.3611"
       x2="1124.2157"
       y2="2530.1038"
       gradientUnits="userSpaceOnUse"
       gradientTransform="matrix(0.04556118,0,0,0.04556118,4.4790901,-31.244374)" /><linearGradient
       inkscape:collect="always"
       id="linearGradient21870"><stop
         style="stop-color:#dba19f;stop-opacity:1;"
         offset="0"
         id="stop21866" /><stop
         style="stop-color:#e4aeac;stop-opacity:1"
         offset="1"
         id="stop21868" /></linearGradient><linearGradient
       inkscape:collect="always"
       xlink:href="#linearGradient360"
       id="linearGradient362"
       x1="787.79358"
       y1="1293.3701"
       x2="2211.3145"
       y2="3235.0393"
       gradientUnits="userSpaceOnUse"
       gradientTransform="matrix(0.04556118,0,0,0.04556118,4.4790901,-31.244374)" /><linearGradient
       inkscape:collect="always"
       id="linearGradient360"><stop
         style="stop-color:#ffc4b8;stop-opacity:1;"
         offset="0"
         id="stop356" /><stop
         style="stop-color:#be9483;stop-opacity:1"
         offset="1"
         id="stop358" /></linearGradient><linearGradient
       inkscape:collect="always"
       xlink:href="#linearGradient1228"
       id="linearGradient1158"
       x1="67.136971"
       y1="106.89285"
       x2="67.650734"
       y2="161.99353"
       gradientUnits="userSpaceOnUse" /><linearGradient
       inkscape:collect="always"
       id="linearGradient1228"><stop
         style="stop-color:#00867f;stop-opacity:1;"
         offset="0"
         id="stop1224" /><stop
         style="stop-color:#003e5a;stop-opacity:1;"
         offset="1"
         id="stop1226" /></linearGradient><clipPath
       clipPathUnits="userSpaceOnUse"
       id="clipPath393"><g
         id="g399"><path
           id="path395"
           style="fill:url(#linearGradient401);fill-opacity:1;stroke:none;stroke-width:0.617851;stroke-dasharray:none;stroke-opacity:1;stop-color:#000000"
           d="M 0,0 V 135.46666 C 23.493622,81.643581 55.771289,63.980375 75.843432,60.092972 108.31385,53.804374 99.435607,26.527081 135.46666,0 Z" /><path
           id="path397"
           style="fill:url(#linearGradient403);fill-opacity:1;stroke:none;stroke-width:0.617851;stroke-opacity:1;stop-color:#000000"
           d="M 135.46666,0 V 135.46666 H 0 C 23.493645,81.643522 55.771276,63.980121 75.843439,60.092714 108.31389,53.80411 99.435566,26.527108 135.46666,0 Z"
           sodipodi:nodetypes="cccsc" /></g></clipPath><linearGradient
       inkscape:collect="always"
       xlink:href="#linearGradient3226"
       id="linearGradient401"
       gradientUnits="userSpaceOnUse"
       x1="2.1001301"
       y1="71.772362"
       x2="129.91042"
       y2="69.353897" /><linearGradient
       inkscape:collect="always"
       xlink:href="#linearGradient3234"
       id="linearGradient403"
       gradientUnits="userSpaceOnUse"
       x1="1.0748698"
       y1="76.793243"
       x2="133.00377"
       y2="77.705856" /></defs><g
     inkscape:label="Layer 1"
     inkscape:groupmode="layer"
     id="layer1"><g
       aria-label="A"
       id="text4231"
       style="font-size:170.917px;line-height:1.25;font-family:'JetBrains Mono';-inkscape-font-specification:'JetBrains Mono';word-spacing:0px;fill:#000000;fill-opacity:0.256734;stroke-width:6.4094" /></g><g
     inkscape:groupmode="layer"
     id="layer3"
     inkscape:label="Face"
     style="display:inline"><g
       id="g4680"><g
         id="g2406"
         transform="translate(-0.74929245,0.52662617)"><path
           style="fill:#130f0e;fill-opacity:1;stroke:#000000;stroke-width:0.0455611px;stroke-linecap:butt;stroke-linejoin:miter;stroke-opacity:1"
           d="m 40.35815,56.037584 c 0,0 -2.998665,-15.214496 -1.817196,-19.623803 1.181477,-4.409307 -1.173847,-8.429675 3.515142,-13.118663 4.688989,-4.688992 11.446077,-15.2441105 26.403571,-15.2441105 14.957494,0 28.153612,15.4800775 28.153612,15.4800775 0,0 5.159021,6.240003 3.415511,12.74687 -1.743501,6.506865 -2.583221,13.163267 -2.501971,13.347549 0.0812,0.184285 -0.84001,8.364281 -0.84001,8.364281 L 90.77955,35.718053 60.921622,30.614085 45.423591,53.149415 45.749955,67.141865 44.086321,61.98612 Z"
           id="path3095" /><path
           style="fill:url(#linearGradient21872);fill-opacity:1;stroke:#000000;stroke-width:0.0455611px;stroke-linecap:butt;stroke-linejoin:miter;stroke-opacity:1"
           d="m 40.420247,56.288056 c -0.108687,0.0023 -0.825351,0.03819 -1.02441,0.69921 -0.06658,0.345399 -0.09121,0.711014 -0.122967,1.03838 -0.03113,0.322409 -0.05604,0.643488 -0.0732,0.9634 -0.03905,0.730146 -0.03733,1.454245 0.02541,2.174358 0.128539,1.47646 0.481643,2.939862 0.808309,4.45746 0.34022,2.385729 1.735583,4.615306 3.122033,6.535388 0.434962,0.585526 1.170677,0.941497 1.881671,1.043436 0.964714,0.138327 1.878043,-0.107845 1.878043,-0.107845 l 0.496772,-0.246148 -1.38328,-6.591266 -0.854377,-5.057912 z"
           id="path3097"
           sodipodi:nodetypes="cccssccsccccc" /><path
           style="fill:url(#linearGradient362);fill-opacity:1;stroke:#000000;stroke-width:0.0455611px;stroke-linecap:butt;stroke-linejoin:miter;stroke-opacity:1"
           d="m 51.915373,97.190741 0.232138,-5.448501 c 0,0 0.265534,-3.330536 -0.07712,-5.532828 -0.342613,-2.202291 -0.407765,-3.839603 -1.665946,-6.217409 -0.906392,-1.712961 -2.286307,-4.414345 -2.963144,-5.969055 -0.262691,-0.603418 -0.399645,-1.032914 -0.401556,-1.167213 -0.0049,-0.335653 -0.176168,-0.857138 -0.677867,-2.597677 -0.261098,-0.90583 -0.771456,-2.080902 -0.994427,-3.832939 -0.651405,-5.118544 -0.813293,-7.928516 -0.78394,-10.646428 0.02933,-2.717915 0.588378,-6.351219 1.063223,-8.638158 0.474838,-2.286935 4.985077,-5.831267 5.627676,-8.922534 0.64259,-3.091266 0.680284,-4.116489 7.065487,-8.779184 3.760596,-2.746123 5.389428,-3.614315 9.335513,-4.304337 2.654009,-0.464087 7.287707,-1.822128 10.817963,0.05052 8.779192,4.656981 12.112968,8.64912 13.501354,12.455279 1.388386,3.806158 3.237706,10.303192 3.237706,10.303192 0,0 2.326336,8.823984 0.994176,15.230812 -0.305,1.466851 -0.40933,2.685494 -0.58561,3.655433 -0.593672,3.266508 -0.787976,4.211565 -1.782738,6.600804 -1.290139,3.098677 -6.442394,10.766422 -7.284207,11.451494 -0.841812,0.685071 -2.544888,2.754927 -2.544888,2.754927 0,0 -0.08835,0.407349 -0.05563,1.000211 0.05449,0.987246 0.400462,3.013428 0.691305,4.587785 0.137845,0.746155 0.01879,1.319305 0.284741,1.620442 0.217481,0.246245 0.681641,0.480074 0.994125,0.821396 1.294682,1.414121 2.019253,3.419159 2.349817,7.230337 0.420902,4.85277 -2.140326,12.97614 -6.239982,17.64795 -4.099647,4.67182 -8.429716,8.15784 -12.673335,7.55263 -1.019761,-0.14544 -2.032684,-0.047 -3.215068,-0.35287 -2.187382,-0.56595 -4.746862,-1.50371 -6.964005,-3.30981 -0.769488,-0.62683 -1.385454,-1.50858 -2.084038,-2.30988 -0.728215,-0.83529 -1.309142,-1.96561 -1.948799,-3.0425 -3.772973,-6.35197 -4.528393,-9.57042 -4.528393,-9.57042 0,0 -0.713142,-0.5848 -0.713142,-4.93106 0,-4.34626 0.199304,-4.14716 0.499681,-5.130971 0.300377,-0.983799 1.488887,-2.259438 1.488887,-2.259438 z"
           id="path3062"
           sodipodi:nodetypes="ccssssssssssssscsssscssssssssssscssc" /><path
           style="fill:url(#linearGradient1158);fill-opacity:1;stroke:#000000;stroke-width:0.0455611px;stroke-linecap:butt;stroke-linejoin:miter;stroke-opacity:1"
           d="m 4.4430483,128.04174 c 0,0 1.235135,-0.81855 2.060728,-3.56929 0.309713,-1.03191 0.708335,-2.5409 1.630292,-3.19265 1.864913,-1.31835 4.3890527,-2.28658 4.3890527,-2.28658 0,0 -1.567147,-2.46267 2.906791,-3.54962 4.709091,-1.14408 6.142573,-1.32495 7.397944,-1.98144 1.01387,-0.5302 4.301846,-2.99072 5.94066,-3.42984 1.638815,-0.43912 4.617459,-1.23724 4.617459,-1.23724 l 2.552282,-0.68389 c 0,0 0.786693,-1.00121 2.554676,-1.47494 1.767984,-0.47374 2.587779,-0.87075 2.587779,-0.87075 l 3.813126,-1.90187 2.709921,-2.62473 4.227754,-3.985262 c 0,0 -2.423824,6.013682 -1.631201,10.653152 0.629912,3.68708 5.868342,14.19386 9.031133,16.46077 3.162782,2.26689 6.017762,3.5276 9.247829,3.58789 3.230075,0.0603 6.909,-0.61359 11.348279,-5.17431 4.557149,-4.68183 7.950215,-11.80485 8.323774,-17.00276 0.37356,-5.1979 -0.925591,-9.141876 -2.877486,-10.6597 -1.951888,-1.517824 5.518568,3.899412 11.558188,6.67313 6.039631,2.77372 13.192061,4.93248 13.192061,4.93248 0,0 7.50558,1.99438 9.05841,2.41047 1.55283,0.41607 8.26248,4.2771 9.79475,5.65499 1.76843,1.96412 3.39219,2.14878 3.54414,3.96522 0.008,5.95523 0.25331,16.1585 0.25331,16.1585 l -128.3841985,-6e-5 z"
           id="path2601"
           sodipodi:nodetypes="csscsssccsccccssssssscsccccc" /><path
           id="path3103"
           style="fill:#212838;fill-opacity:1;stroke:#000000;stroke-width:0.0455611px;stroke-linecap:butt;stroke-linejoin:miter;stroke-opacity:1"
           d="m 59.733593,46.444117 c -3.07697,-0.01854 -10.393017,1.249551 -10.393017,1.249551 0,0 -5.293068,5.244917 -5.470012,5.526517 l -0.148342,3.717688 c 0,0 2.633692,-2.388992 4.865165,-5.373818 2.231481,-2.984837 1.861736,-1.330141 2.769714,3.810318 0.907969,5.140467 1.436137,6.721021 10.03743,6.874489 5.381952,0.09603 7.897586,-0.587679 9.2871,-1.745029 1.113277,-0.959856 1.888214,-2.274815 2.489663,-3.689121 0.544351,-1.280028 0.725069,-3.095413 1.107436,-4.348601 0.329877,-1.081089 1.27447,-1.078729 2.480603,-1.056805 1.103172,0.04171 2.394341,-0.140579 3.058115,0.876428 0.247471,0.379188 0.21851,1.128733 0.361999,1.783115 0.320082,1.490074 1.010636,4.122293 2.205356,6.054033 0.772314,1.248773 2.455089,1.739881 3.992471,2.033076 1.964142,0.374591 3.751593,0.349988 3.751593,0.349988 0,0 2.783281,0.02374 4.948728,-0.161245 2.165434,-0.184979 2.643174,-1.152175 3.545044,-2.80477 0.90188,-1.652604 1.488661,-7.833589 1.488661,-7.833589 l 0.70415,-0.285021 -0.05,-2.253767 c 0,0 -5.779258,-1.37839 -10.939576,-1.775997 -5.160313,-0.397608 -9.57497,2.095013 -9.57497,2.095013 0,0 -2.018216,0.390869 -3.432924,0.44084 -1.414725,0.04997 -3.37345,-1.223477 -5.614882,-2.209539 -2.241438,-0.986063 -8.392519,-1.255215 -11.469489,-1.273754 z m 1.887234,0.840744 c 0.534311,-4.47e-4 1.068729,0.01022 1.592591,0.03293 1.027359,-0.0029 3.112982,0.06323 4.974449,0.427755 1.563418,0.306162 2.93375,0.881805 3.729159,1.224548 1.742446,0.750826 1.282256,3.73065 0.717505,5.931406 -0.564767,2.200764 -2.152277,5.141638 -3.868785,6.063022 -1.716507,0.921379 -7.004673,0.78399 -11.41263,0.369469 -1.381108,-0.144985 -2.786903,-0.139394 -3.86265,-1.578444 -0.811895,-1.086083 -1.322622,-3.284597 -1.588058,-5.211771 -0.169419,-1.452153 -0.239162,-3.013016 0.02132,-4.13281 0.183536,-0.788868 0.628931,-1.247815 0.938098,-1.539471 0.52651,-0.49669 2.486477,-1.068792 4.240221,-1.308102 1.313717,-0.176085 2.915818,-0.277272 4.518744,-0.27853 z m 26.249019,1.09525 c 1.66669,-0.0143 3.139448,0.04849 3.139448,0.04849 0,0 1.856826,-0.0198 3.552975,0.290721 1.07975,0.197677 2.04322,0.660542 2.5864,0.923503 0.68168,0.330018 1.4315,0.74144 1.5586,1.69324 0.25922,2.959914 -0.057,6.019962 -1.41294,8.665432 -0.11084,0.215782 -0.22781,0.399794 -0.36377,0.563022 -0.23242,0.279044 -0.52047,0.497355 -0.92893,0.709757 -0.618543,0.287108 -1.322209,0.364239 -2.118239,0.431049 -2.194866,0.161329 -4.393511,0.268871 -6.400191,0.03577 -1.213967,-0.141016 -2.381907,-0.307661 -3.367168,-0.94513 -0.737839,-0.477386 -1.353486,-1.266464 -1.814525,-2.212829 -0.442445,-0.806648 -1.558615,-4.939671 -1.60639,-6.726238 -0.02238,-0.835743 0.233077,-1.476246 0.702195,-1.908408 1.163128,-1.034781 3.138781,-1.460882 4.788551,-1.523183 0.551296,-0.02708 1.128424,-0.04044 1.683984,-0.0452 z" /><path
           style="fill:none;stroke:#000000;stroke-width:0.0455611px;stroke-linecap:butt;stroke-linejoin:miter;stroke-opacity:1"
           d="m 51.198833,81.807264 c 0,0 0.03995,0.03987 0.09876,0.105795 0.782861,0.878306 6.578665,7.271784 12.070179,10.313919 4.069984,2.332686 8.947403,1.938147 13.019822,0.587871 3.402999,-1.170333 5.648932,-3.187413 6.494977,-4.043629 l 1.291961,-1.307491"
           id="path42403"
           sodipodi:nodetypes="csccsc" /></g></g></g></svg>
